# author: headus 3D tools
#  using: ply2obj v1.8
#   from: uvlayout v2.09.04
mtllib DetectingPlane.mtl
# 6 vertices
v -20.544000 0.350000 28.277000
v -10.800208 0.350000 33.241706
v 0.000860 0.350000 34.952426
v 10.801926 0.350000 33.241706
v 20.545716 0.350000 28.277000
v 0.000860 0.350000 -0.000574
# 12 normals
vn 0.000000 1.000000 0.000000
vn 0.000000 1.000000 0.000000
vn 0.000000 1.000000 0.000000
vn 0.000000 1.000000 0.000000
vn 0.000000 1.000000 0.000000
vn 0.000000 1.000000 0.000000
vn 0.000000 1.000000 0.000000
vn 0.000000 1.000000 0.000000
vn 0.000000 1.000000 0.000000
vn 0.000000 1.000000 0.000000
vn 0.000000 1.000000 0.000000
vn 0.000000 1.000000 0.000000
# 6 uv coords
vt 0.354598 0.062253
vt 0.747674 0.000002
vt 1.140748 0.062255
vt 0.747672 1.272018
vt -0.000005 0.242937
vt 1.495352 0.242939
# 4 polygons
usemtl initialShadingGroup
s off
g AlertPlane AlertPlanefsfsfsf
f 2/1/1 6/4/2 1/5/3
f 3/2/4 6/4/5 2/1/6
f 4/3/7 6/4/8 3/2/9
f 5/6/10 6/4/11 4/3/12
# totals: 6 6 12 4
