# This file uses centimeters as units for non-parametric coordinates.

mtllib rightEyelid.mtl
g default
v 1.362267 7.132924 -2.437494
v 2.204193 7.132924 -0.931040
v 2.204193 7.132924 0.931043
v 1.362267 7.132924 2.437494
v 0.000000 7.132924 3.012911
v 0.000000 7.132924 -3.012911
v 2.591185 6.067628 -4.636401
v 4.192627 6.067628 -1.770945
v 4.192627 6.067628 1.770945
v 2.591185 6.067628 4.636402
v 0.000000 6.067628 5.730904
v 0.000000 6.067628 -5.730904
v 3.566463 4.408387 -6.381454
v 5.770656 4.408387 -2.437494
v 5.770656 4.408387 2.437494
v 3.566462 4.408387 6.381457
v 0.000000 4.408387 7.887914
v 0.000000 4.408387 -7.887914
v 4.192627 2.317626 -7.501852
v 6.783811 2.317626 -2.865451
v 6.783811 2.317626 2.865451
v 4.192627 2.317626 7.501851
v 0.000000 2.317626 9.272802
v 0.000000 2.317626 -9.272798
v 4.408387 0.000000 -7.887914
v 7.132925 0.000000 -3.012911
v 7.132925 0.000000 3.012917
v 4.408386 0.000000 7.887914
v 0.000000 0.000000 9.749996
v 0.000000 0.000000 -9.749995
v 0.000000 7.499995 0.000000
v 1.487802 7.790240 -2.662115
v 2.407314 7.790240 -1.016839
v 4.578988 6.626777 -1.934145
v 2.829971 6.626777 -5.063656
v 2.407314 7.790240 1.016839
v 4.578988 6.626777 1.934145
v 1.487802 7.790240 2.662113
v 2.829968 6.626777 5.063656
v 0.000000 7.790240 3.290563
v 0.000000 6.626777 6.259023
v 0.000000 7.790240 -3.290563
v 0.000000 6.626777 -6.259022
v 6.302437 4.814631 -2.662109
v 3.895120 4.814631 -6.969525
v 6.302437 4.814631 2.662122
v 3.895119 4.814631 6.969529
v 0.000000 4.814631 8.614812
v 0.000000 4.814631 -8.614812
v 7.408959 2.531202 -3.129506
v 4.578988 2.531202 -8.193166
v 7.408958 2.531202 3.129511
v 4.578988 2.531202 8.193168
v 0.000000 2.531202 10.127317
v 0.000000 2.531202 -10.127314
v 7.790241 0.000000 -3.290563
v 4.814635 0.000000 -8.614812
v 7.790241 0.000000 3.290563
v 4.814630 0.000000 8.614812
v 0.000000 0.000000 10.648488
v 0.000000 0.000000 -10.648487
v 0.000000 8.191145 0.000000
vt 0.075445 0.757666
vt 0.087861 0.726145
vt 0.132692 0.739027
vt 0.111840 0.797730
vt 0.085993 0.689790
vt 0.129266 0.672379
vt 0.070409 0.659709
vt 0.102504 0.616124
vt 0.045271 0.645648
vt 0.057987 0.584850
vt 0.051882 0.774231
vt 0.070766 0.833405
vt 0.176832 0.749016
vt 0.149896 0.829546
vt 0.172149 0.657916
vt 0.137096 0.580573
vt 0.080423 0.532181
vt 0.098485 0.883495
vt 0.220187 0.756174
vt 0.188885 0.853031
vt 0.214541 0.646348
vt 0.173470 0.553213
vt 0.110860 0.490996
vt 0.132986 0.921341
vt 0.263411 0.761282
vt 0.229284 0.870480
vt 0.257013 0.636834
vt 0.211866 0.531712
vt 0.146957 0.459460
vt 0.172127 0.949009
vt 0.042818 0.710236
vt 0.266460 0.422737
vt 0.296021 0.382028
vt 0.320809 0.434626
vt 0.281009 0.450793
vt 0.323923 0.496828
vt 0.282707 0.484717
vt 0.304511 0.551638
vt 0.271033 0.514085
vt 0.266427 0.585052
vt 0.248875 0.529328
vt 0.242891 0.409783
vt 0.254790 0.352585
vt 0.328253 0.348432
vt 0.360494 0.421080
vt 0.364762 0.506344
vt 0.339937 0.581847
vt 0.293184 0.633294
vt 0.276596 0.301911
vt 0.362310 0.321913
vt 0.400185 0.409928
vt 0.405369 0.513476
vt 0.376472 0.604833
vt 0.326385 0.670432
vt 0.305924 0.261642
vt 0.397745 0.299214
vt 0.440661 0.400162
vt 0.446617 0.519151
vt 0.413997 0.623883
vt 0.361701 0.697982
vt 0.338314 0.230705
vt 0.241289 0.469785
vt 0.274096 0.760402
vt 0.242283 0.871197
vt 0.267733 0.636614
vt 0.224724 0.529667
vt 0.165831 0.456807
vt 0.191173 0.949712
vt 0.156999 0.959336
vt 0.120382 0.929551
vt 0.085004 0.888039
vt 0.057663 0.835314
vt 0.039526 0.775092
vt 0.030881 0.710850
vt 0.032892 0.646059
vt 0.044757 0.584294
vt 0.066547 0.529043
vt 0.097481 0.484121
vt 0.130850 0.450739
vn 0.250424 0.935297 -0.250015
vn 0.380978 0.920268 -0.089229
vn 0.605459 0.782037 -0.147778
vn 0.401328 0.816590 -0.414869
vn 0.380978 0.920268 0.089229
vn 0.605459 0.782037 0.147778
vn 0.250424 0.935297 0.250015
vn 0.401327 0.816591 0.414869
vn -0.244789 0.917618 0.313139
vn -0.003929 0.841907 0.539609
vn -0.244789 0.917617 -0.313139
vn -0.003929 0.841906 -0.539609
vn 0.798308 0.568273 -0.199427
vn 0.541745 0.615290 -0.572652
vn 0.798307 0.568273 0.199427
vn 0.541745 0.615290 0.572652
vn 0.133102 0.645432 0.752131
vn 0.133103 0.645432 -0.752131
vn 0.925093 0.299051 -0.234033
vn 0.642880 0.334167 -0.689230
vn 0.925093 0.299050 0.234033
vn 0.642880 0.334166 0.689230
vn 0.217104 0.353687 0.909820
vn 0.217104 0.353687 -0.909819
vn 0.966604 -0.073419 -0.245535
vn 0.678463 -0.071914 -0.731107
vn 0.966604 -0.073419 0.245535
vn 0.678462 -0.071915 0.731107
vn 0.246071 -0.065395 0.967043
vn 0.246070 -0.065394 -0.967044
vn -0.580879 0.813990 0.000000
vn -0.250424 -0.935297 0.250015
vn -0.401327 -0.816591 0.414869
vn -0.605459 -0.782037 0.147778
vn -0.380979 -0.920268 0.089229
vn -0.605459 -0.782037 -0.147778
vn -0.380979 -0.920268 -0.089229
vn -0.401327 -0.816591 -0.414869
vn -0.250424 -0.935297 -0.250015
vn -0.487986 -0.734865 -0.471002
vn -0.563045 -0.782139 -0.266907
vn -0.563045 -0.782139 0.266907
vn -0.487986 -0.734865 0.471002
vn -0.541745 -0.615290 0.572652
vn -0.798308 -0.568273 0.199427
vn -0.798308 -0.568273 -0.199427
vn -0.541745 -0.615290 -0.572652
vn -0.511252 -0.559684 -0.652208
vn -0.511252 -0.559684 0.652208
vn -0.642880 -0.334166 0.689230
vn -0.925093 -0.299050 0.234033
vn -0.925093 -0.299051 -0.234033
vn -0.642880 -0.334167 -0.689230
vn -0.547669 -0.303159 -0.779842
vn -0.547668 -0.303159 0.779842
vn -0.568641 -0.548787 0.612764
vn -0.848892 -0.482581 0.215634
vn -0.848892 -0.482581 -0.215634
vn -0.568642 -0.548786 -0.612765
vn -0.478198 -0.529118 -0.700971
vn -0.478198 -0.529118 0.700971
vn -0.785783 -0.618502 0.000000
s 1
g RightEyelid
usemtl initialShadingGroup
f 32/1/1 33/2/2 34/3/3 35/4/4
f 33/2/2 36/5/5 37/6/6 34/3/3
f 36/5/5 38/7/7 39/8/8 37/6/6
f 38/7/7 40/9/9 41/10/10 39/8/8
f 42/11/11 32/1/1 35/4/4 43/12/12
f 35/4/4 34/3/3 44/13/13 45/14/14
f 34/3/3 37/6/6 46/15/15 44/13/13
f 37/6/6 39/8/8 47/16/16 46/15/15
f 39/8/8 41/10/10 48/17/17 47/16/16
f 43/12/12 35/4/4 45/14/14 49/18/18
f 45/14/14 44/13/13 50/19/19 51/20/20
f 44/13/13 46/15/15 52/21/21 50/19/19
f 46/15/15 47/16/16 53/22/22 52/21/21
f 47/16/16 48/17/17 54/23/23 53/22/22
f 49/18/18 45/14/14 51/20/20 55/24/24
f 51/20/20 50/19/19 56/25/25 57/26/26
f 50/19/19 52/21/21 58/27/27 56/25/25
f 52/21/21 53/22/22 59/28/28 58/27/27
f 53/22/22 54/23/23 60/29/29 59/28/28
f 55/24/24 51/20/20 57/26/26 61/30/30
f 33/2/2 32/1/1 62/31/31
f 36/5/5 33/2/2 62/31/31
f 38/7/7 36/5/5 62/31/31
f 40/9/9 38/7/7 62/31/31
f 32/1/1 42/11/11 62/31/31
f 1/32/32 7/33/33 8/34/34 2/35/35
f 2/35/35 8/34/34 9/36/36 3/37/37
f 3/37/37 9/36/36 10/38/38 4/39/39
f 4/39/39 10/38/38 11/40/40 5/41/41
f 6/42/42 12/43/43 7/33/33 1/32/32
f 7/33/33 13/44/44 14/45/45 8/34/34
f 8/34/34 14/45/45 15/46/46 9/36/36
f 9/36/36 15/46/46 16/47/47 10/38/38
f 10/38/38 16/47/47 17/48/48 11/40/40
f 12/43/43 18/49/49 13/44/44 7/33/33
f 13/44/44 19/50/50 20/51/51 14/45/45
f 14/45/45 20/51/51 21/52/52 15/46/46
f 15/46/46 21/52/52 22/53/53 16/47/47
f 16/47/47 22/53/53 23/54/54 17/48/48
f 18/49/49 24/55/55 19/50/50 13/44/44
f 19/50/50 25/56/56 26/57/57 20/51/51
f 20/51/51 26/57/57 27/58/58 21/52/52
f 21/52/52 27/58/58 28/59/59 22/53/53
f 22/53/53 28/59/59 29/60/60 23/54/54
f 24/55/55 30/61/61 25/56/56 19/50/50
f 2/35/35 31/62/62 1/32/32
f 3/37/37 31/62/62 2/35/35
f 4/39/39 31/62/62 3/37/37
f 5/41/41 31/62/62 4/39/39
f 1/32/32 31/62/62 6/42/42
f 26/63/57 25/64/56 57/26/26 56/25/25
f 27/65/58 26/63/57 56/25/25 58/27/27
f 28/66/59 27/65/58 58/27/27 59/28/28
f 29/67/60 28/66/59 59/28/28 60/29/29
f 25/64/56 30/68/61 61/30/30 57/26/26
f 55/24/24 61/30/30 30/69/61 24/70/55
f 49/18/18 55/24/24 24/70/55 18/71/49
f 43/12/12 49/18/18 18/71/49 12/72/43
f 42/11/11 43/12/12 12/72/43 6/73/42
f 62/31/31 42/11/11 6/73/42 31/74/62
f 40/9/9 62/31/31 31/74/62 5/75/41
f 41/10/10 40/9/9 5/75/41 11/76/40
f 48/17/17 41/10/10 11/76/40 17/77/48
f 54/23/23 48/17/17 17/77/48 23/78/54
f 60/29/29 54/23/23 23/78/54 29/79/60
